<?xml version="1.0" standalone="no"?>
<!DOCTYPE svg PUBLIC "-//W3C//DTD SVG 20010904//EN"
 "http://www.w3.org/TR/2001/REC-SVG-20010904/DTD/svg10.dtd">
<svg version="1.0" xmlns="http://www.w3.org/2000/svg"
 width="354.000000pt" height="354.000000pt" viewBox="0 0 354.000000 354.000000"
 preserveAspectRatio="xMidYMid meet">
<metadata>
Created by potrace 1.11, written by Peter Selinger 2001-2013
</metadata>
<g transform="translate(0.000000,354.000000) scale(0.100000,-0.100000)"
fill="#000000" stroke="none">
<path d="M2479 3470 c-112 -20 -141 -36 -374 -201 -174 -124 -259 -208 -352
-350 -75 -115 -71 -114 -163 -20 -50 52 -102 88 -264 182 -32 19 -84 57 -116
85 -68 60 -194 115 -325 140 -80 16 -91 16 -160 1 -152 -33 -273 -97 -374
-197 -71 -69 -238 -319 -294 -438 l-32 -67 1 -220 c0 -121 6 -263 13 -315 30
-213 184 -568 329 -754 26 -33 79 -106 116 -161 172 -251 291 -372 820 -838
165 -146 313 -261 344 -268 45 -11 226 -10 309 2 78 11 78 11 128 67 28 31
124 135 214 232 184 197 291 321 341 395 54 81 158 214 230 295 66 75 156 196
222 301 45 70 307 610 342 705 91 243 119 480 77 646 -26 100 -86 217 -157
307 -84 105 -337 308 -541 432 -95 58 -98 59 -168 58 -38 -1 -113 -9 -166 -19z
m176 -906 c88 -21 256 -85 262 -99 8 -24 -24 -81 -115 -201 -99 -132 -150
-183 -263 -261 -93 -64 -156 -83 -273 -83 -78 0 -269 30 -283 44 -9 9 38 219
58 258 11 21 33 50 49 64 17 16 31 40 35 63 3 20 11 43 16 51 17 24 2 -64 -17
-104 -17 -34 -16 -34 27 -111 99 -174 212 -214 345 -122 59 41 84 86 84 153 0
164 -115 312 -245 314 l-40 1 37 19 c75 40 193 45 323 14z m-1755 -50 c47 -19
44 -25 -19 -43 -61 -18 -151 -108 -174 -175 -30 -89 -24 -125 38 -215 30 -44
55 -85 55 -90 0 -5 12 -19 26 -30 38 -30 131 -29 169 1 57 44 205 228 205 253
0 14 -12 53 -26 86 -14 34 -23 63 -21 65 11 11 66 -50 94 -103 31 -58 103
-293 103 -335 0 -21 -5 -23 -53 -25 -28 -1 -105 -16 -170 -32 -168 -44 -308
-40 -445 11 -79 30 -235 184 -281 278 -72 149 -51 195 124 264 39 15 85 37
103 48 92 57 195 72 272 42z"/>
</g>
</svg>
