<?xml version="1.0" encoding="utf-8"?>
<!-- Generator: Adobe Illustrator 15.0.0, SVG Export Plug-In  -->
<!DOCTYPE svg PUBLIC "-//W3C//DTD SVG 1.1//EN" "http://www.w3.org/Graphics/SVG/1.1/DTD/svg11.dtd" [
	<!ENTITY ns_flows "http://ns.adobe.com/Flows/1.0/">
]>
<svg version="1.1"
	 xmlns="http://www.w3.org/2000/svg" xmlns:xlink="http://www.w3.org/1999/xlink" xmlns:a="http://ns.adobe.com/AdobeSVGViewerExtensions/3.0/"
	 x="0px" y="0px" width="595px" height="734px" viewBox="0 0 595 734" overflow="visible" enable-background="new 0 0 595 734"
	 xml:space="preserve">
<defs>
</defs>
<path d="M272.2,614.6H253v20.8h20.3c7.3,0,11.2-3.9,11.2-10.9C284.4,617.7,279,614.6,272.2,614.6z M177.3,621l-10.5,32.4h21
	L177.5,621H177.3z M194.9,378.3c17.5,0,24.2-15.4,24.2-30.8c0-15.4-6.7-30.8-24.2-30.8s-24.2,15.4-24.2,30.8
	C170.7,362.8,177.4,378.3,194.9,378.3z M101,346.8c0-18.9-10.2-28.1-28.8-28.1H59.4v57.3h12.9C92.9,375.6,101,367.6,101,346.8z
	 M253,469.3h-20.4v22.1h21.5c7.7,0,11.9-4.1,11.9-11.5C266,472.6,260.2,469.3,253,469.3z M297.6,0L0,284.2v449.3h595.3V284.2
	L297.6,0z M468.9,295.5H522c18.4,0,36.5,8.3,36.5,29.2c0,11.2-5.4,21.8-16.4,26v0.3c11.1,2.6,14.3,15,15.2,24.9
	c0.3,4.4,0.7,19.6,4.4,23.4h-26.9c-2.3-3.5-2.8-13.7-3.1-16.6c-0.7-10.5-2.5-21.2-15.2-21.2H496v37.8h-27.2V295.5z M474.8,486.4
	v19.8h-48.2v18.7h54.2v22h-79.8v-98.1h78.4v20.5h-52.8v17.2H474.8z M364.5,295.5h83.1v21.7h-55.9v18.2h51.1v21h-51.1v19.8H449v23.3
	h-84.5V295.5z M380.4,486.4v19.8h-48.2v18.7h54.2v22h-79.8v-98.1h78.4v20.5h-52.8v17.2H380.4z M282.8,295.5l20.4,79.2l0.3-1.9
	l20.4-77.3h28.3l-33.7,103.9h-31.3l-32.9-103.9H282.8z M290.5,524.7c0.3,4.1,0.7,18.5,4.1,22.1h-25.4c-2.2-3.3-2.6-12.9-2.9-15.7
	c-0.7-9.9-2.3-20.1-14.3-20.1h-19.4v35.7H207v-98.1h50.2c17.4,0,34.5,7.8,34.5,27.6c0,10.6-5.1,20.6-15.4,24.6v0.3
	C286.6,503.7,289.7,515.4,290.5,524.7z M194.9,293.3c32.9,0,51.4,24,51.4,54.1c0,30.1-18.5,54.1-51.4,54.1
	c-32.9,0-51.4-24-51.4-54.1C143.5,317.3,162.1,293.3,194.9,293.3z M111.3,470.8v-22h84.4v22h-29.4v76.1h-25.6v-76.1H111.3z
	 M32.3,295.5h44.8c32,0,51.1,19.4,51.1,51.5c0,34-19.4,52.4-51.1,52.4H32.3V295.5z M51.8,504.8c-14.1-4-28.8-10.3-28.8-28.3
	c0-21.4,21.6-29.8,40.1-29.8c19.6,0,39.3,9.5,39.4,31.6H76.9c0.4-8.9-8-11.8-15.8-11.8c-5.5,0-12.4,1.9-12.4,8.4
	c0,7.6,14.2,8.9,28.5,12.9c14.2,4,28.5,10.6,28.5,28.3c0,24.9-21.2,32.8-42.9,32.8c-22.6,0-39.8-10.4-40-35.2l22.9,0.2
	c0.6,11.5,7.7,15.2,18.6,15.2c7.7,0,15.7-2.7,15.7-10C80,510.5,66,508.8,51.8,504.8z M125.8,687.7h-22.7v-70.1h-0.3l-19.5,70.1H64.9
	l-19.5-70.1h-0.3v70.1l-22.7,0v-92.4l35.6,0l16,61.6h0.3l16-61.6h35.6V687.7L125.8,687.7z M199.2,687.7l-5.7-16.6h-32.3l-5.8,16.6
	h-24.8l34.7-92.4h24.5l34.7,92.4H199.2z M287.5,687.7c-2.1-3.1-2.5-12.2-2.7-14.8c-0.7-9.3-2.2-18.9-13.5-18.9H253v33.6h-24.2v-92.4
	h47.3c16.4,0,32.5,7.4,32.5,26c0,10-4.8,19.4-14.5,23.2v0.3c9.9,2.3,12.7,13.3,13.5,22.1c0.3,3.9,0.7,17.5,3.9,20.8L287.5,687.7
	L287.5,687.7z M379,687.7L354,648.9l-9.9,10.4v28.5H320v-92.4h24.2v35.5l30.5-35.5h30l-34.3,36.4l38.6,56H379L379,687.7z
	 M488.9,687.7h-75.2v-92.4h73.9v19.3h-49.7v16.2h45.5v18.6h-45.5V667h51V687.7z M489,448.8h84.4v22H544v76.1h-25.6v-76.1H489V448.8
	L489,448.8z M573.5,616.1h-27.7v71.7h-24.2v-71.7h-27.7v-20.7h79.5V616.1L573.5,616.1z M531.4,328.4c0-7.7-6.1-11.2-13.7-11.2H496
	v23.4h22.8C527,340.6,531.4,336.2,531.4,328.4z"/>
</svg>
